<svg xmlns="http://www.w3.org/2000/svg" xmlns:xlink="http://www.w3.org/1999/xlink" version="1.1" width="1000"
  height="1000" viewBox="0 0 1000 1000" xml:space="preserve">
  <rect x="0" y="0" width="100%" height="100%" fill="none" />
  <g transform="matrix(0 6.235 -6.2696 0 500.1941 497.5021)" id="26958">
    <path
      style="stroke: none; stroke-width: 0; stroke-dasharray: none; stroke-linecap: butt; stroke-dashoffset: 0; stroke-linejoin: miter; stroke-miterlimit: 4; is-custom-font: none; font-file-url: none; fill: rgb(48,53,68); fill-rule: nonzero; opacity: 1;"
      vector-effect="non-scaling-stroke" transform=" translate(-79.5, -69.9998)"
      d="M 156.392 69.4649 L 156.392 69.4654 C 156.536 69.7136 156.536 70.0163 156.392 70.2638 L 156.388 70.2713 L 118.306 136.31 C 118.169 136.478 117.96 136.584 117.731 136.591 H 41.5013 C 41.2627 136.579 41.0451 136.468 40.8984 136.293 L 2.61822 70.4661 L 2.61092 70.4536 L 2.60348 70.4411 C 2.46551 70.2101 2.46551 69.9249 2.60348 69.6938 L 2.61064 69.6818 L 2.61766 69.6698 L 40.9688 3.78825 L 40.9701 3.78604 C 41.1039 3.55562 41.3585 3.4062 41.6419 3.40872 L 41.653 3.40882 H 41.6641 H 117.682 C 117.916 3.42996 118.119 3.56395 118.228 3.75733 L 118.236 3.77178 L 118.244 3.78613 L 156.392 69.4649 Z"
      stroke-linecap="round" />
  </g>
  <g transform="matrix(5.437 0 0 5.437 500.0036 500.0036)" id="407116">
    <g style="" vector-effect="non-scaling-stroke">
      <g transform="matrix(1 0 0 1 9.55 -5.3983)">
        <path
          style="stroke: none; stroke-width: 1; stroke-dasharray: none; stroke-linecap: butt; stroke-dashoffset: 0; stroke-linejoin: miter; stroke-miterlimit: 4; is-custom-font: none; font-file-url: none; fill: rgb(87,130,187); fill-rule: nonzero; opacity: 1;"
          transform=" translate(-84.55, -69.6017)"
          d="M 83.7 71.1 c 0.2 0 0.3 0 0.5 -0.1 l 1.7 -1 c 0.5 -0.3 0.6 -0.9 0.4 -1.4 c -0.3 -0.5 -0.9 -0.6 -1.4 -0.4 l -1.7 1 c -0.5 0.3 -0.6 0.9 -0.4 1.4 C 83 70.9 83.3 71.1 83.7 71.1 z"
          stroke-linecap="round" />
      </g>
      <g transform="matrix(1 0 0 1 18.25 -10.3983)">
        <path
          style="stroke: none; stroke-width: 1; stroke-dasharray: none; stroke-linecap: butt; stroke-dashoffset: 0; stroke-linejoin: miter; stroke-miterlimit: 4; is-custom-font: none; font-file-url: none; fill: rgb(87,130,187); fill-rule: nonzero; opacity: 1;"
          transform=" translate(-93.25, -64.6017)"
          d="M 92.4 66.1 c 0.2 0 0.3 0 0.5 -0.1 l 1.7 -1 c 0.5 -0.3 0.6 -0.9 0.4 -1.4 c -0.3 -0.5 -0.9 -0.6 -1.4 -0.4 l -1.7 1 c -0.5 0.3 -0.6 0.9 -0.4 1.4 C 91.7 65.9 92 66.1 92.4 66.1 z"
          stroke-linecap="round" />
      </g>
      <g transform="matrix(1 0 0 1 -9.9813 -5.6205)">
        <path
          style="stroke: none; stroke-width: 1; stroke-dasharray: none; stroke-linecap: butt; stroke-dashoffset: 0; stroke-linejoin: miter; stroke-miterlimit: 4; is-custom-font: none; font-file-url: none; fill: rgb(87,130,187); fill-rule: nonzero; opacity: 1;"
          transform=" translate(-65.0188, -69.3795)"
          d="M 66.4 69 l -1.7 -1 c -0.5 -0.3 -1.1 -0.1 -1.4 0.4 c -0.3 0.5 -0.1 1.1 0.4 1.4 l 1.7 1 c 0.2 0.1 0.3 0.1 0.5 0.1 c 0.3 0 0.7 -0.2 0.9 -0.5 C 67 69.9 66.8 69.3 66.4 69 z"
          stroke-linecap="round" />
      </g>
      <g transform="matrix(1 0 0 1 -18.75 -10.5205)">
        <path
          style="stroke: none; stroke-width: 1; stroke-dasharray: none; stroke-linecap: butt; stroke-dashoffset: 0; stroke-linejoin: miter; stroke-miterlimit: 4; is-custom-font: none; font-file-url: none; fill: rgb(87,130,187); fill-rule: nonzero; opacity: 1;"
          transform=" translate(-56.25, -64.4795)"
          d="M 57.6 64.1 l -1.7 -1 c -0.5 -0.3 -1.1 -0.1 -1.4 0.4 c -0.3 0.5 -0.1 1.1 0.4 1.4 l 1.7 1 c 0.2 0.1 0.3 0.1 0.5 0.1 c 0.3 0 0.7 -0.2 0.9 -0.5 C 58.3 65 58.1 64.4 57.6 64.1 z"
          stroke-linecap="round" />
      </g>
      <g transform="matrix(1 0 0 1 0 21)">
        <path
          style="stroke: none; stroke-width: 1; stroke-dasharray: none; stroke-linecap: butt; stroke-dashoffset: 0; stroke-linejoin: miter; stroke-miterlimit: 4; is-custom-font: none; font-file-url: none; fill: rgb(87,130,187); fill-rule: nonzero; opacity: 1;"
          transform=" translate(-75, -96)"
          d="M 75 94 c -0.6 0 -1 0.4 -1 1 v 2 c 0 0.6 0.4 1 1 1 s 1 -0.4 1 -1 v -2 C 76 94.4 75.6 94 75 94 z"
          stroke-linecap="round" />
      </g>
      <g transform="matrix(1 0 0 1 0 11)">
        <path
          style="stroke: none; stroke-width: 1; stroke-dasharray: none; stroke-linecap: butt; stroke-dashoffset: 0; stroke-linejoin: miter; stroke-miterlimit: 4; is-custom-font: none; font-file-url: none; fill: rgb(87,130,187); fill-rule: nonzero; opacity: 1;"
          transform=" translate(-75, -86)"
          d="M 75 84 c -0.6 0 -1 0.4 -1 1 v 2 c 0 0.6 0.4 1 1 1 s 1 -0.4 1 -1 v -2 C 76 84.4 75.6 84 75 84 z"
          stroke-linecap="round" />
      </g>
      <g transform="matrix(1 0 0 1 0 -11.1)">
        <path
          style="stroke: none; stroke-width: 1; stroke-dasharray: none; stroke-linecap: butt; stroke-dashoffset: 0; stroke-linejoin: miter; stroke-miterlimit: 4; is-custom-font: none; font-file-url: none; fill: rgb(87,130,187); fill-rule: nonzero; opacity: 1;"
          transform=" translate(-75, -63.9)"
          d="M 75 65.9 c 0.6 0 1 -0.4 1 -1 v -2 c 0 -0.6 -0.4 -1 -1 -1 s -1 0.4 -1 1 v 2 C 74 65.4 74.4 65.9 75 65.9 z"
          stroke-linecap="round" />
      </g>
      <g transform="matrix(1 0 0 1 0 -21.1)">
        <path
          style="stroke: none; stroke-width: 1; stroke-dasharray: none; stroke-linecap: butt; stroke-dashoffset: 0; stroke-linejoin: miter; stroke-miterlimit: 4; is-custom-font: none; font-file-url: none; fill: rgb(87,130,187); fill-rule: nonzero; opacity: 1;"
          transform=" translate(-75, -53.9)"
          d="M 75 55.9 c 0.6 0 1 -0.4 1 -1 v -2 c 0 -0.6 -0.4 -1 -1 -1 s -1 0.4 -1 1 v 2 C 74 55.4 74.4 55.9 75 55.9 z"
          stroke-linecap="round" />
      </g>
      <g transform="matrix(1 0 0 1 18.3278 10.2795)">
        <path
          style="stroke: none; stroke-width: 1; stroke-dasharray: none; stroke-linecap: butt; stroke-dashoffset: 0; stroke-linejoin: miter; stroke-miterlimit: 4; is-custom-font: none; font-file-url: none; fill: rgb(87,130,187); fill-rule: nonzero; opacity: 1;"
          transform=" translate(-93.3278, -85.2795)"
          d="M 94.7 84.9 l -1.7 -1 c -0.5 -0.3 -1.1 -0.1 -1.4 0.4 c -0.3 0.5 -0.1 1.1 0.4 1.4 l 1.7 1 c 0.2 0.1 0.3 0.1 0.5 0.1 c 0.3 0 0.7 -0.2 0.9 -0.5 C 95.3 85.8 95.2 85.2 94.7 84.9 z"
          stroke-linecap="round" />
      </g>
      <g transform="matrix(1 0 0 1 9.6187 5.3795)">
        <path
          style="stroke: none; stroke-width: 1; stroke-dasharray: none; stroke-linecap: butt; stroke-dashoffset: 0; stroke-linejoin: miter; stroke-miterlimit: 4; is-custom-font: none; font-file-url: none; fill: rgb(87,130,187); fill-rule: nonzero; opacity: 1;"
          transform=" translate(-84.6188, -80.3795)"
          d="M 86 80 l -1.7 -1 c -0.5 -0.3 -1.1 -0.1 -1.4 0.4 s -0.1 1.1 0.4 1.4 l 1.7 1 c 0.2 0.1 0.3 0.1 0.5 0.1 c 0.3 0 0.7 -0.2 0.9 -0.5 C 86.6 80.9 86.4 80.3 86 80 z"
          stroke-linecap="round" />
      </g>
      <g transform="matrix(1 0 0 1 -18.65 10.5795)">
        <path
          style="stroke: none; stroke-width: 1; stroke-dasharray: none; stroke-linecap: butt; stroke-dashoffset: 0; stroke-linejoin: miter; stroke-miterlimit: 4; is-custom-font: none; font-file-url: none; fill: rgb(87,130,187); fill-rule: nonzero; opacity: 1;"
          transform=" translate(-56.35, -85.5795)"
          d="M 56.7 84.2 l -1.7 1 c -0.5 0.3 -0.7 0.9 -0.4 1.4 c 0.2 0.3 0.5 0.5 0.9 0.5 c 0.2 0 0.3 0 0.5 -0.1 l 1.7 -1 c 0.5 -0.3 0.7 -0.9 0.4 -1.4 C 57.8 84.1 57.1 83.9 56.7 84.2 z"
          stroke-linecap="round" />
      </g>
      <g transform="matrix(1 0 0 1 -9.95 5.6795)">
        <path
          style="stroke: none; stroke-width: 1; stroke-dasharray: none; stroke-linecap: butt; stroke-dashoffset: 0; stroke-linejoin: miter; stroke-miterlimit: 4; is-custom-font: none; font-file-url: none; fill: rgb(87,130,187); fill-rule: nonzero; opacity: 1;"
          transform=" translate(-65.05, -80.6795)"
          d="M 65.4 79.3 l -1.7 1 c -0.5 0.3 -0.7 0.9 -0.4 1.4 c 0.2 0.3 0.5 0.5 0.9 0.5 c 0.2 0 0.3 0 0.5 -0.1 l 1.7 -1 c 0.5 -0.3 0.7 -0.9 0.4 -1.4 C 66.5 79.2 65.9 79 65.4 79.3 z"
          stroke-linecap="round" />
      </g>
      <g transform="matrix(1 0 0 1 0.1 0)">
        <path
          style="stroke: none; stroke-width: 1; stroke-dasharray: none; stroke-linecap: butt; stroke-dashoffset: 0; stroke-linejoin: miter; stroke-miterlimit: 4; is-custom-font: none; font-file-url: none; fill: rgb(87,130,187); fill-rule: nonzero; opacity: 1;"
          transform=" translate(-75.1, -75)"
          d="M 121.1 75 c 3.9 -5.2 6.7 -10.4 8 -15.3 c 1.5 -5.7 1.1 -10.6 -1.3 -14.7 c -4.6 -7.8 -15.8 -10.8 -29.8 -9.2 C 92.4 23.1 84.2 15 75 15 c -9.2 0 -17.4 8.1 -23 20.8 c -14 -1.6 -25.2 1.4 -29.8 9.2 c -2.4 4.1 -2.8 9 -1.3 14.7 c 1.3 5 4.1 10.2 8 15.3 c -3.9 5.2 -6.7 10.4 -8 15.3 c -1.5 5.7 -1.1 10.6 1.3 14.7 c 3.8 6.5 12.1 9.6 22.8 9.6 c 2.3 0 4.6 -0.2 7.1 -0.4 c 5.6 12.7 13.8 20.8 23 20.8 c 9.2 0 17.4 -8.1 23 -20.8 c 2.4 0.3 4.8 0.4 7.1 0.4 c 10.7 0 19 -3.2 22.8 -9.6 c 2.4 -4.1 2.8 -9 1.3 -14.7 C 127.8 85.4 125.1 80.2 121.1 75 z M 105.2 37.3 c 9.9 0 17.5 2.9 20.9 8.8 c 2.1 3.6 2.5 8 1.1 13.1 c -1.2 4.5 -3.8 9.4 -7.4 14.2 c -3.2 -4 -7.2 -8 -11.7 -11.8 c 0.4 -0.8 0.7 -1.7 0.7 -2.6 c 0 -3 -2.5 -5.5 -5.5 -5.5 c -1.1 -5.7 -2.7 -11 -4.6 -15.8 C 101 37.4 103.1 37.3 105.2 37.3 z M 106.8 90.9 c 0 1.9 -1.6 3.5 -3.5 3.5 s -3.5 -1.6 -3.5 -3.5 s 1.6 -3.5 3.5 -3.5 S 106.8 89 106.8 90.9 z M 103 85.4 c -2.9 0.2 -5.2 2.6 -5.2 5.5 c 0 0.9 0.2 1.8 0.6 2.5 c -2.9 2 -6 4 -9.2 5.8 c -3.2 1.8 -6.4 3.4 -9.6 4.9 c -1 -1.5 -2.7 -2.5 -4.6 -2.5 c -1.9 0 -3.6 1 -4.6 2.5 c -3.2 -1.5 -6.4 -3.1 -9.6 -4.9 c -3.2 -1.8 -6.3 -3.7 -9.2 -5.8 c 0.4 -0.8 0.6 -1.6 0.6 -2.5 c 0 -2.9 -2.3 -5.3 -5.2 -5.5 c -0.3 -3.4 -0.5 -6.8 -0.5 -10.4 c 0 -3.5 0.2 -7 0.5 -10.4 c 2.9 -0.2 5.2 -2.6 5.2 -5.5 c 0 -0.9 -0.2 -1.8 -0.6 -2.5 c 2.9 -2 6 -4 9.2 -5.8 c 3.2 -1.8 6.4 -3.4 9.6 -4.9 c 1 1.5 2.7 2.5 4.6 2.5 c 1.9 0 3.6 -1 4.6 -2.5 c 3.2 1.5 6.4 3.1 9.6 4.9 c 3.2 1.8 6.2 3.7 9.1 5.7 c -0.3 0.7 -0.5 1.5 -0.5 2.4 c 0 2.9 2.3 5.3 5.2 5.5 c 0.3 3.4 0.5 7 0.5 10.6 C 103.4 78.5 103.3 82 103 85.4 z M 78.5 107.1 c 0 1.9 -1.6 3.5 -3.5 3.5 s -3.5 -1.6 -3.5 -3.5 s 1.6 -3.5 3.5 -3.5 S 78.5 105.2 78.5 107.1 z M 46.7 87.4 c 1.9 0 3.5 1.6 3.5 3.5 s -1.6 3.5 -3.5 3.5 c -1.9 0 -3.5 -1.6 -3.5 -3.5 S 44.7 87.4 46.7 87.4 z M 43.2 59.1 c 0 -1.9 1.6 -3.5 3.5 -3.5 c 1.9 0 3.5 1.6 3.5 3.5 c 0 1.9 -1.6 3.5 -3.5 3.5 C 44.7 62.6 43.2 61 43.2 59.1 z M 71.5 42.9 c 0 -1.9 1.6 -3.5 3.5 -3.5 s 3.5 1.6 3.5 3.5 c 0 1.9 -1.6 3.5 -3.5 3.5 S 71.5 44.8 71.5 42.9 z M 103.3 62.5 c -1.9 0 -3.5 -1.6 -3.5 -3.5 s 1.6 -3.5 3.5 -3.5 s 3.5 1.6 3.5 3.5 S 105.3 62.5 103.3 62.5 z M 99.5 54.9 c -2.9 -2 -6.1 -4 -9.3 -5.8 c -3.3 -1.9 -6.5 -3.5 -9.8 -5 c 0.1 -0.4 0.1 -0.8 0.1 -1.2 c 0 -0.3 0 -0.6 -0.1 -1 c 5.7 -2 11.2 -3.3 16.4 -4 c 1.9 4.7 3.5 10.1 4.6 15.9 C 100.7 54 100.1 54.4 99.5 54.9 z M 69.6 44.1 c -3.3 1.5 -6.5 3.1 -9.8 5 c -3.3 1.9 -6.4 3.8 -9.4 5.9 c -0.5 -0.5 -1.2 -0.9 -1.8 -1.1 c 1.1 -5.9 2.7 -11.3 4.6 -16 c 5.1 0.7 10.7 2.1 16.4 4 c -0.1 0.3 -0.1 0.6 -0.1 1 C 69.5 43.3 69.5 43.7 69.6 44.1 z M 43 63.2 c 0.6 0.5 1.3 0.9 2.1 1.2 c -0.3 3.4 -0.5 7 -0.5 10.6 c 0 3.6 0.2 7.2 0.5 10.6 c -0.8 0.2 -1.5 0.6 -2.1 1.2 C 38.6 83 34.7 79 31.5 75 C 34.7 71 38.6 67 43 63.2 z M 50.4 95 c 3 2.1 6.1 4 9.4 5.9 c 3.3 1.9 6.5 3.5 9.8 5 c -0.1 0.4 -0.1 0.8 -0.1 1.2 c 0 0.3 0 0.6 0.1 1 c -5.7 2 -11.2 3.3 -16.4 4 c -1.9 -4.8 -3.5 -10.2 -4.6 -16 C 49.2 95.9 49.9 95.5 50.4 95 z M 80.4 105.9 c 3.3 -1.5 6.5 -3.1 9.8 -5 c 3.3 -1.9 6.4 -3.8 9.4 -5.9 c 0.5 0.5 1.2 0.9 1.8 1.1 c -1.1 5.9 -2.7 11.3 -4.6 16 c -5.1 -0.7 -10.7 -2.1 -16.4 -4 c 0.1 -0.3 0.1 -0.6 0.1 -1 C 80.5 106.7 80.5 106.3 80.4 105.9 z M 107 86.8 c -0.6 -0.5 -1.3 -0.9 -2.1 -1.2 c 0.3 -3.4 0.5 -7 0.5 -10.6 c 0 -3.7 -0.2 -7.3 -0.5 -10.8 c 0.7 -0.2 1.4 -0.6 2 -1.1 c 4.5 3.8 8.4 7.8 11.6 11.9 C 115.3 79 111.4 83 107 86.8 z M 75 17 c 8.3 0 15.8 7.4 21 19.1 c -5.1 0.7 -10.6 2.1 -16.3 4 c -1 -1.6 -2.7 -2.7 -4.8 -2.7 c -2 0 -3.8 1.1 -4.8 2.7 c -5.6 -1.9 -11.1 -3.3 -16.3 -4 C 59.2 24.4 66.7 17 75 17 z M 22.8 59.1 c -1.4 -5.1 -1 -9.5 1.1 -13.1 c 3.5 -5.9 11.1 -8.8 20.9 -8.8 c 2 0 4.2 0.1 6.4 0.4 c -1.9 4.8 -3.5 10.1 -4.6 15.9 c -3 0 -5.4 2.5 -5.4 5.5 c 0 0.9 0.2 1.7 0.6 2.5 c -4.5 3.8 -8.4 7.7 -11.6 11.7 C 26.5 68.5 24 63.7 22.8 59.1 z M 23.9 104 c -2.1 -3.6 -2.5 -8 -1.1 -13.1 c 1.2 -4.5 3.8 -9.4 7.4 -14.2 c 3.2 4 7.1 8 11.6 11.7 c -0.4 0.8 -0.6 1.6 -0.6 2.5 c 0 3 2.4 5.5 5.4 5.5 c 1.1 5.8 2.7 11.2 4.6 15.9 C 38.3 113.8 28.1 111.1 23.9 104 z M 75 133 c -8.3 0 -15.8 -7.4 -21 -19.1 c 5.1 -0.7 10.6 -2.1 16.3 -4 c 1 1.6 2.7 2.7 4.8 2.7 c 2 0 3.8 -1.1 4.8 -2.7 c 5.6 1.9 11.1 3.3 16.3 4 C 90.8 125.6 83.3 133 75 133 z M 126.1 104 c -4.2 7.1 -14.4 9.8 -27.3 8.4 c 1.9 -4.8 3.5 -10.1 4.6 -15.9 c 3 -0.1 5.4 -2.5 5.4 -5.5 c 0 -0.9 -0.2 -1.7 -0.6 -2.5 c 4.5 -3.8 8.4 -7.7 11.6 -11.7 c 3.6 4.8 6.2 9.7 7.4 14.2 C 128.6 96 128.2 100.4 126.1 104 z"
          stroke-linecap="round" />
      </g>
      <g transform="matrix(1 0 0 1 0 0)">
        <path
          style="stroke: none; stroke-width: 1; stroke-dasharray: none; stroke-linecap: butt; stroke-dashoffset: 0; stroke-linejoin: miter; stroke-miterlimit: 4; is-custom-font: none; font-file-url: none; fill: rgb(87,130,187); fill-rule: nonzero; opacity: 1;"
          transform=" translate(-75, -75)"
          d="M 75 69.5 c -3.1 0 -5.5 2.5 -5.5 5.5 s 2.5 5.5 5.5 5.5 s 5.5 -2.5 5.5 -5.5 S 78.1 69.5 75 69.5 z M 75 78.5 c -1.9 0 -3.5 -1.6 -3.5 -3.5 s 1.6 -3.5 3.5 -3.5 s 3.5 1.6 3.5 3.5 S 76.9 78.5 75 78.5 z"
          stroke-linecap="round" />
      </g>
    </g>
  </g>
</svg>